<svg xmlns="http://www.w3.org/2000/svg" version="1.1" xmlns:xlink="http://www.w3.org/1999/xlink" xmlns:svgjs="http://svgjs.com/svgjs" width="512" height="512" x="0" y="0" viewBox="0 0 512 512" style="enable-background:new 0 0 512 512" xml:space="preserve" class=""><g><path d="M501.333 106.667h-78.72l-12.501-24.981C404.651 70.784 393.685 64 381.483 64h-49.088L296.32 51.989a180.582 180.582 0 0 0-57.344-9.323H32c-17.643 0-32 14.357-32 32V160c0 17.643 14.357 32 32 32h51.541L64.768 314.069 25.6 343.467c-.149.107-.171.299-.299.427a10.393 10.393 0 0 0-3.264 4.629c-.128.341-.128.661-.213 1.024-.192.811-.491 1.579-.491 2.453v85.333c0 17.643 14.357 32 32 32H224c17.643 0 32-14.357 32-32V352c0-.256-.128-.469-.149-.725a10.381 10.381 0 0 0-.469-2.283c-.149-.533-.256-1.045-.491-1.536-.341-.704-.811-1.301-1.301-1.92-.32-.405-.555-.853-.917-1.195-.725-.704-1.6-1.216-2.517-1.707-.277-.149-.491-.363-.768-.469l-66.944-28.693 7.232-47.061c.789.149 1.557.256 2.325.256 4.8 0 9.131-3.221 10.325-8.085l10.667-42.667c1.429-5.717-2.048-11.499-7.765-12.928-2.027-.533-4.011-.235-5.845.363l1.748-11.35h37.845c19.52 0 38.805-3.136 57.344-9.323l36.075-12.011h49.088c12.203 0 23.168-6.784 28.629-17.707l12.48-24.96h78.741c5.888 0 10.667-4.779 10.667-10.667s-4.779-10.665-10.667-10.665zM234.667 437.333c0 5.888-4.779 10.667-10.667 10.667H53.333c-5.888 0-10.667-4.779-10.667-10.667v-74.667h192v74.667zm-41.302-96H64l17.067-12.821c2.24-1.664 3.712-4.16 4.139-6.912L105.152 192h74.411l-19.435 126.357a10.65 10.65 0 0 0 6.336 11.435l26.901 11.541zM320 152.32l-30.421 10.133c-16.341 5.461-33.365 8.213-50.603 8.213H32c-5.888 0-10.667-4.779-10.667-10.667V74.667C21.333 68.779 26.112 64 32 64v-.021h206.976c17.237 0 34.261 2.773 50.603 8.213L320 82.347v69.973zm71.019-8.875a10.596 10.596 0 0 1-9.536 5.888h-40.128v-64h40.128c4.075 0 7.723 2.261 9.536 5.888l13.056 26.112-13.056 26.112z" fill="#ffffff" data-original="#000000" class=""></path><path d="M117.333 85.333h-64c-5.888 0-10.667 4.779-10.667 10.667s4.779 10.667 10.667 10.667h64c5.888 0 10.667-4.779 10.667-10.667s-4.779-10.667-10.667-10.667zM117.333 128h-64c-5.888 0-10.667 4.779-10.667 10.667s4.779 10.667 10.667 10.667h64c5.888 0 10.667-4.779 10.667-10.667S123.221 128 117.333 128z" fill="#ffffff" data-original="#000000" class=""></path></g></svg>