<svg xmlns="http://www.w3.org/2000/svg" version="1.1" xmlns:xlink="http://www.w3.org/1999/xlink" xmlns:svgjs="http://svgjs.com/svgjs" width="512" height="512" x="0" y="0" viewBox="0 0 24 24" style="enable-background:new 0 0 512 512" xml:space="preserve" class=""><g><path d="M21.5 18h-2a.5.5 0 0 1 0-1h2c.827 0 1.5-.673 1.5-1.5v-7c0-.827-.673-1.5-1.5-1.5h-19C1.673 7 1 7.673 1 8.5v7c0 .827.673 1.5 1.5 1.5h2a.5.5 0 0 1 0 1h-2A2.503 2.503 0 0 1 0 15.5v-7C0 7.122 1.121 6 2.5 6h19C22.879 6 24 7.122 24 8.5v7c0 1.378-1.121 2.5-2.5 2.5z" fill="#ffffff" data-original="#000000" class=""></path><path d="M20.5 11c-.827 0-1.5-.673-1.5-1.5S19.673 8 20.5 8s1.5.673 1.5 1.5-.673 1.5-1.5 1.5zm0-2a.5.5 0 1 0 .002 1.002A.5.5 0 0 0 20.5 9zM19.5 7a.5.5 0 0 1-.5-.5V4.493c0-.667-.26-1.295-.732-1.768l-.992-.992A2.515 2.515 0 0 0 15.508 1H6.5C5.673 1 5 1.673 5 2.5v4a.5.5 0 0 1-1 0v-4C4 1.122 5.121 0 6.5 0h9.008c.922 0 1.823.374 2.475 1.025l.992.992A3.481 3.481 0 0 1 20 4.493V6.5a.5.5 0 0 1-.5.5zM6.5 22a.5.5 0 0 1-.354-.853l2.5-2.5a.5.5 0 0 1 .708-.001l1.97 1.97a.5.5 0 0 1-.707.707L9 19.707l-2.146 2.146A.5.5 0 0 1 6.5 22z" fill="#ffffff" data-original="#000000" class=""></path><path d="M17.5 22a.498.498 0 0 1-.376-.171L14 18.26l-2.653 3.04a.5.5 0 0 1-.754-.659l3.03-3.47a.5.5 0 0 1 .753 0l3.5 4A.5.5 0 0 1 17.5 22z" fill="#ffffff" data-original="#000000" class=""></path><path d="M17.5 24h-11A2.503 2.503 0 0 1 4 21.5v-8a.5.5 0 0 1 .5-.5h15a.5.5 0 0 1 .5.5v8c0 1.378-1.121 2.5-2.5 2.5zM5 14v7.5c0 .827.673 1.5 1.5 1.5h11c.827 0 1.5-.673 1.5-1.5V14z" fill="#ffffff" data-original="#000000" class=""></path></g></svg>