<svg xmlns="http://www.w3.org/2000/svg" version="1.1" xmlns:xlink="http://www.w3.org/1999/xlink" xmlns:svgjs="http://svgjs.com/svgjs" width="512" height="512" x="0" y="0" viewBox="0 0 24 24" style="enable-background:new 0 0 512 512" xml:space="preserve" class=""><g><path d="M18.5 13a.5.5 0 0 1-.5-.5v-5a.5.5 0 0 1 1 0v5a.5.5 0 0 1-.5.5zM21.06 6.44a.5.5 0 0 1-.43-.244C20.183 5.447 19.387 5 18.5 5s-1.683.447-2.13 1.196a.501.501 0 0 1-.86-.513C16.141 4.629 17.258 4 18.5 4s2.359.629 2.989 1.684a.5.5 0 0 1-.429.756z" fill="#ffffff" data-original="#000000" class=""></path><path d="M23.21 4.29a.502.502 0 0 1-.394-.191C21.771 2.765 20.197 2 18.5 2s-3.271.765-4.316 2.099a.5.5 0 0 1-.787-.617C14.633 1.904 16.493 1 18.5 1s3.867.904 5.104 2.481a.5.5 0 0 1-.394.809zM5.5 13a.5.5 0 0 1-.5-.5v-5a.5.5 0 0 1 1 0v5a.5.5 0 0 1-.5.5zM8.06 6.44a.5.5 0 0 1-.43-.244C7.183 5.447 6.387 5 5.5 5s-1.683.447-2.13 1.196a.5.5 0 0 1-.859-.512C3.141 4.629 4.258 4 5.5 4s2.359.629 2.989 1.684a.5.5 0 0 1-.429.756z" fill="#ffffff" data-original="#000000" class=""></path><path d="M10.21 4.29a.502.502 0 0 1-.394-.191C8.771 2.765 7.197 2 5.5 2s-3.271.765-4.316 2.099a.5.5 0 0 1-.788-.617C1.633 1.904 3.493 1 5.5 1s3.867.904 5.104 2.481a.5.5 0 0 1-.394.809zM21.5 21h-19A2.503 2.503 0 0 1 0 18.5v-4C0 13.122 1.121 12 2.5 12h19c1.379 0 2.5 1.122 2.5 2.5v4c0 1.378-1.121 2.5-2.5 2.5zm-19-8c-.827 0-1.5.673-1.5 1.5v4c0 .827.673 1.5 1.5 1.5h19c.827 0 1.5-.673 1.5-1.5v-4c0-.827-.673-1.5-1.5-1.5z" fill="#ffffff" data-original="#000000" class=""></path><path d="M3.5 23a.5.5 0 0 1-.5-.5v-2a.5.5 0 0 1 1 0v2a.5.5 0 0 1-.5.5zM20.5 23a.5.5 0 0 1-.5-.5v-2a.5.5 0 0 1 1 0v2a.5.5 0 0 1-.5.5zM19.5 18c-.827 0-1.5-.673-1.5-1.5s.673-1.5 1.5-1.5 1.5.673 1.5 1.5-.673 1.5-1.5 1.5zm0-2a.5.5 0 1 0 .002 1.002A.5.5 0 0 0 19.5 16zM4.5 18c-.827 0-1.5-.673-1.5-1.5S3.673 15 4.5 15s1.5.673 1.5 1.5S5.327 18 4.5 18zm0-2a.5.5 0 1 0 .002 1.002A.5.5 0 0 0 4.5 16zM9.5 18c-.827 0-1.5-.673-1.5-1.5S8.673 15 9.5 15s1.5.673 1.5 1.5-.673 1.5-1.5 1.5zm0-2a.5.5 0 1 0 .002 1.002A.5.5 0 0 0 9.5 16z" fill="#ffffff" data-original="#000000" class=""></path></g></svg>