<svg xmlns="http://www.w3.org/2000/svg" version="1.1" xmlns:xlink="http://www.w3.org/1999/xlink" xmlns:svgjs="http://svgjs.com/svgjs" width="512" height="512" x="0" y="0" viewBox="0 0 24 24" style="enable-background:new 0 0 512 512" xml:space="preserve" class=""><g><path d="M13.671 21h-3.343a3.503 3.503 0 0 1-3.494-3.294l-.51-8.686a5.63 5.63 0 0 1 1.54-4.235C8.949 3.634 10.418 3 12 3s3.051.634 4.137 1.785a5.638 5.638 0 0 1 1.54 4.235l-.511 8.686A3.504 3.504 0 0 1 13.671 21zM12 4c-1.304 0-2.515.522-3.409 1.471s-1.345 2.188-1.269 3.49l.511 8.686A2.503 2.503 0 0 0 10.329 20h3.343a2.503 2.503 0 0 0 2.496-2.353l.511-8.686c.076-1.302-.375-2.542-1.269-3.49S13.304 4 12 4z" fill="#ffffff" data-original="#000000" class=""></path><path d="M9.5 20.75a.5.5 0 0 1-.5-.5V8.8c0-.592-.35-1.13-.891-1.371l-1.062-.472a.5.5 0 0 1 .406-.914l1.062.472A2.502 2.502 0 0 1 10 8.8v11.45a.5.5 0 0 1-.5.5zM14.5 20.75a.5.5 0 0 1-.5-.5V8.8c0-.987.583-1.884 1.484-2.285l1.062-.472a.5.5 0 1 1 .406.914l-1.062.472c-.54.24-.89.779-.89 1.371v11.45a.5.5 0 0 1-.5.5zM16.5 24a.5.5 0 0 1-.354-.853l2.29-2.29a.5.5 0 0 1 .707.707l-2.29 2.29A.498.498 0 0 1 16.5 24zM20.21 20.29a.5.5 0 0 1-.354-.853l2.29-2.29a.5.5 0 0 1 .707.707l-2.29 2.29a.498.498 0 0 1-.353.146zM18.79 20.29a.497.497 0 0 1-.353-.146l-2.12-2.11a.502.502 0 1 1 .756-.658l2.069 2.06a.5.5 0 0 1-.352.854z" fill="#ffffff" data-original="#000000" class=""></path><path d="M19.5 22c-.827 0-1.5-.673-1.5-1.5s.673-1.5 1.5-1.5 1.5.673 1.5 1.5-.673 1.5-1.5 1.5zm0-2a.5.5 0 1 0 0 1 .5.5 0 0 0 0-1zM7.5 24a.502.502 0 0 1-.354-.146l-2.29-2.29a.5.5 0 0 1 .707-.707l2.29 2.29A.5.5 0 0 1 7.5 24zM3.79 20.29a.502.502 0 0 1-.354-.146l-2.29-2.29a.5.5 0 0 1 .707-.707l2.29 2.29a.5.5 0 0 1-.353.853zM5.21 20.29a.5.5 0 0 1-.352-.854l2.093-2.083a.498.498 0 0 1 .879.318.526.526 0 0 1-.147.365l-2.12 2.11a.504.504 0 0 1-.353.144z" fill="#ffffff" data-original="#000000" class=""></path><path d="M4.5 22c-.827 0-1.5-.673-1.5-1.5S3.673 19 4.5 19s1.5.673 1.5 1.5S5.327 22 4.5 22zm0-2a.5.5 0 1 0 0 1 .5.5 0 0 0 0-1zM18.79 3.29a.502.502 0 0 1-.354-.146l-2.29-2.29a.5.5 0 0 1 .707-.707l2.29 2.29a.5.5 0 0 1-.353.853zM22.5 7a.502.502 0 0 1-.354-.146l-2.29-2.29a.5.5 0 0 1 .707-.707l2.29 2.29A.5.5 0 0 1 22.5 7zM16.64 6.86a.5.5 0 0 1-.354-.853l2.15-2.15a.5.5 0 0 1 .707.707l-2.15 2.15a.498.498 0 0 1-.353.146z" fill="#ffffff" data-original="#000000" class=""></path><path d="M19.5 5c-.827 0-1.5-.673-1.5-1.5S18.673 2 19.5 2s1.5.673 1.5 1.5S20.327 5 19.5 5zm0-2a.5.5 0 1 0 0 1 .5.5 0 0 0 0-1zM5.21 3.29a.5.5 0 0 1-.354-.853l2.29-2.29a.5.5 0 0 1 .707.707l-2.29 2.29a.498.498 0 0 1-.353.146zM1.5 7a.5.5 0 0 1-.354-.853l2.29-2.29a.5.5 0 0 1 .707.707l-2.29 2.29A.498.498 0 0 1 1.5 7zM7.36 6.86a.502.502 0 0 1-.354-.146l-2.15-2.15a.5.5 0 0 1 .707-.707l2.15 2.15a.5.5 0 0 1-.353.853z" fill="#ffffff" data-original="#000000" class=""></path><path d="M4.5 5C3.673 5 3 4.327 3 3.5S3.673 2 4.5 2 6 2.673 6 3.5 5.327 5 4.5 5zm0-2a.5.5 0 1 0 0 1 .5.5 0 0 0 0-1z" fill="#ffffff" data-original="#000000" class=""></path></g></svg>