<svg xmlns="http://www.w3.org/2000/svg" version="1.1" xmlns:xlink="http://www.w3.org/1999/xlink" xmlns:svgjs="http://svgjs.com/svgjs" width="512" height="512" x="0" y="0" viewBox="0 0 512 512" style="enable-background:new 0 0 512 512" xml:space="preserve" class=""><g><path d="M309.333 362.667h-10.667V352c0-5.888-4.779-10.667-10.667-10.667s-10.667 4.779-10.667 10.667v10.667h-10.667c-5.888 0-10.667 4.779-10.667 10.667s4.779 10.667 10.667 10.667h10.667v10.667c0 5.888 4.779 10.667 10.667 10.667s10.667-4.779 10.667-10.667V384h10.667c5.888 0 10.667-4.779 10.667-10.667s-4.779-10.666-10.667-10.666zM416 362.667c5.888 0 10.667-4.779 10.667-10.667s-4.779-10.667-10.667-10.667-10.667 4.779-10.667 10.667A10.658 10.658 0 0 0 416 362.667z" fill="#ffffff" data-original="#000000" class=""></path><path d="M171.456 488.747C85.888 481.003 21.333 449.728 21.333 416v-63.872c27.179 25.472 78.656 44.352 144.683 50.859.341.021.704.043 1.045.043 5.419 0 10.069-4.117 10.603-9.621.576-5.867-3.712-11.093-9.579-11.669-83.648-8.256-146.752-39.381-146.752-72.405v-64.384c34.197 32.043 106.368 53.717 192 53.717 8.32 0 16.469-.256 24.512-.661 5.888-.277 10.432-5.291 10.133-11.179-.299-5.888-5.461-10.987-11.179-10.112-7.68.363-15.509.619-23.467.619-113.152 0-192-39.36-192-74.667v-64.384C55.531 170.325 127.701 192 213.333 192s157.803-21.675 192-53.717v64.384c0 19.413-23.168 39.595-61.973 53.995-5.525 2.048-8.341 8.192-6.293 13.717 1.6 4.288 5.696 6.955 10.027 6.955 1.237 0 2.496-.213 3.712-.661 23.488-8.704 41.749-19.328 54.549-31.253v22.869c0 5.888 4.779 10.667 10.667 10.667a10.657 10.657 0 0 0 10.667-10.667V96c-.021-53.824-93.739-96-213.355-96S0 42.176 0 96v320c0 46.315 69.717 84.949 169.557 93.995.32.021.64.043.96.043 5.461 0 10.112-4.16 10.603-9.707.555-5.846-3.776-11.051-9.664-11.584zm41.877-467.414c113.152 0 192 39.36 192 74.667s-78.827 74.667-192 74.667-192-39.36-192-74.667 78.848-74.667 192-74.667zM416 384c-5.888 0-10.667 4.779-10.667 10.667s4.779 10.667 10.667 10.667 10.667-4.779 10.667-10.667S421.888 384 416 384zM394.667 362.667c-5.888 0-10.667 4.779-10.667 10.667s4.779 10.667 10.667 10.667 10.667-4.779 10.667-10.667c-.001-5.889-4.779-10.667-10.667-10.667zM437.333 362.667c-5.888 0-10.667 4.779-10.667 10.667s4.779 10.667 10.667 10.667S448 379.222 448 373.334c0-5.889-4.779-10.667-10.667-10.667z" fill="#ffffff" data-original="#000000" class=""></path><path d="M394.667 298.667h-85.333C219.819 298.667 192 400.32 192 437.333 192 486.869 206.357 512 234.667 512c44.245 0 66.005-41.515 72.192-55.787 7.36-2.73 24.682-8.213 45.141-8.213s37.76 5.483 45.141 8.213C403.285 470.485 425.067 512 469.333 512c28.31 0 42.667-25.131 42.667-74.667 0-37.013-27.84-138.666-117.333-138.666zm74.666 192c-37.099 0-53.781-45.76-53.931-46.208a10.819 10.819 0 0 0-5.632-6.165c-1.045-.469-25.835-11.627-57.771-11.627-31.979 0-56.747 11.157-57.771 11.627-2.624 1.216-4.672 3.435-5.632 6.165-.149.448-16.832 46.208-53.931 46.208-5.291 0-21.333 0-21.333-53.333 0-18.219 17.707-117.333 96-117.333h85.333c78.293 0 96 99.115 96 117.333.002 53.333-16.062 53.333-21.332 53.333z" fill="#ffffff" data-original="#000000" class=""></path></g></svg>