<svg xmlns="http://www.w3.org/2000/svg" version="1.1" xmlns:xlink="http://www.w3.org/1999/xlink" xmlns:svgjs="http://svgjs.com/svgjs" width="512" height="512" x="0" y="0" viewBox="0 0 24 24" style="enable-background:new 0 0 512 512" xml:space="preserve" class=""><g><path d="M14.5 8h-5C8.673 8 8 7.327 8 6.5v-2a.5.5 0 0 1 1 0v2a.5.5 0 0 0 .5.5h5a.5.5 0 0 0 .5-.5v-2a.5.5 0 0 1 1 0v2c0 .827-.673 1.5-1.5 1.5z" fill="#ffffff" data-original="#000000" class=""></path><path d="M21.5 17h-19A2.503 2.503 0 0 1 0 14.5v-8C0 5.122 1.121 4 2.5 4h19C22.879 4 24 5.122 24 6.5v8c0 1.378-1.121 2.5-2.5 2.5zM2.5 5C1.673 5 1 5.673 1 6.5v8c0 .827.673 1.5 1.5 1.5h19c.827 0 1.5-.673 1.5-1.5v-8c0-.827-.673-1.5-1.5-1.5z" fill="#ffffff" data-original="#000000" class=""></path><path d="M19.5 12c-.827 0-1.5-.673-1.5-1.5S18.673 9 19.5 9s1.5.673 1.5 1.5-.673 1.5-1.5 1.5zm0-2a.5.5 0 1 0 .002 1.002A.5.5 0 0 0 19.5 10zM20.5 5a.5.5 0 0 1-.5-.5v-2c0-.827-.673-1.5-1.5-1.5h-13C4.673 1 4 1.673 4 2.5v2a.5.5 0 0 1-1 0v-2C3 1.122 4.121 0 5.5 0h13C19.879 0 21 1.122 21 2.5v2a.5.5 0 0 1-.5.5zM15.5 17a.5.5 0 0 1-.5-.5v-2a.5.5 0 0 0-.5-.5h-5a.5.5 0 0 0-.5.5v2a.5.5 0 0 1-1 0v-2c0-.827.673-1.5 1.5-1.5h5c.827 0 1.5.673 1.5 1.5v2a.5.5 0 0 1-.5.5zM11 24a.5.5 0 0 1-.299-.9l1.467-1.1-1.468-1.1a.5.5 0 0 1 .599-.8l2 1.5a.5.5 0 0 1 0 .8l-2 1.5A.498.498 0 0 1 11 24z" fill="#ffffff" data-original="#000000" class=""></path><path d="M12 22.5c-1.025 0-2.07-.038-3.105-.111C4.595 22.079 0 21.026 0 19c0-.211.055-.428.163-.644a.5.5 0 0 1 .895.448A.46.46 0 0 0 1 19c0 .733 2.531 2 7.966 2.392A43.53 43.53 0 0 0 12 21.5c.248.011.477 0 .71-.009a.5.5 0 0 1 .042.999c-.248.01-.495.01-.752.01zM15.489 22.35a.5.5 0 0 1-.04-.999C20.601 20.93 23 19.699 23 19a.46.46 0 0 0-.058-.196.501.501 0 0 1 .895-.448c.108.216.163.433.163.644 0 2.463-6.482 3.186-8.469 3.349l-.042.001z" fill="#ffffff" data-original="#000000" class=""></path></g></svg>